<svg xmlns="http://www.w3.org/2000/svg" version="1.1" xmlns:xlink="http://www.w3.org/1999/xlink" xmlns:svgjs="http://svgjs.dev/svgjs" width="1440" height="560" preserveAspectRatio="none" viewBox="0 0 1440 560"><g mask="url(&quot;#SvgjsMask1018&quot;)" fill="none"><rect width="1440" height="560" x="0" y="0" fill="rgba(114, 47, 249, 1)"></rect><path d="M1103.214,385.322C1122.604,385.138,1142.137,378.978,1152.5,362.588C1163.557,345.101,1163.5,323.179,1154.191,304.701C1143.781,284.037,1126.351,264.5,1103.214,264.754C1080.358,265.005,1064.614,285.484,1054.139,305.799C1044.68,324.144,1041.439,345.976,1052.278,363.541C1062.672,380.384,1083.423,385.51,1103.214,385.322" fill="rgba(103, 43, 224, 0.47)" class="triangle-float2"></path><path d="M1253.784,646.588C1310.541,643.956,1353.775,602.457,1382.814,553.62C1412.689,503.378,1434.937,442.03,1405.419,391.578C1376.097,341.461,1311.849,332.981,1253.784,333.083C1195.957,333.185,1134.551,343.602,1103.071,392.11C1069.128,444.412,1070.446,512.982,1102.219,566.63C1133.416,619.307,1192.628,649.424,1253.784,646.588" fill="rgba(103, 43, 224, 0.47)" class="triangle-float3"></path><path d="M1205.8720021739177 280.3938565164604L1197.1022176438219 208.96969320466675 1094.3508649411792 257.8364516557075z" fill="rgba(103, 43, 224, 0.47)" class="triangle-float1"></path><path d="M511.1617140181652 359.9245535415776L589.1142723915738 399.6433658860293 628.8330847360254 321.6908075126207 550.8805263626168 281.9719951681691z" fill="rgba(103, 43, 224, 0.47)" class="triangle-float2"></path><path d="M323.785,495.452C363.07,495.416,396.864,471.372,417.515,437.953C439.451,402.454,449.23,359.474,431.01,321.932C410.409,279.483,370.927,246.808,323.785,244.826C273.39,242.708,221.783,266.85,199.72,312.209C179.491,353.797,203.833,399.829,229.761,438.124C251.818,470.702,284.442,495.488,323.785,495.452" fill="rgba(103, 43, 224, 0.47)" class="triangle-float3"></path><path d="M608.667,238.998C636.4,239.194,661.248,224.378,676.467,201.193C693.556,175.16,705.268,142.233,690.008,115.087C674.54,87.571,640.22,79.679,608.667,80.585C578.919,81.439,549.435,93.493,535.035,119.537C521.024,144.88,527.315,175.594,542.509,200.245C556.882,223.564,581.275,238.804,608.667,238.998" fill="rgba(103, 43, 224, 0.47)" class="triangle-float3"></path></g><defs><mask id="SvgjsMask1018"><rect width="1440" height="560" fill="#ffffff"></rect></mask><style>
                @keyframes float1 {
                    0%{transform: translate(0, 0)}
                    50%{transform: translate(-10px, 0)}
                    100%{transform: translate(0, 0)}
                }

                .triangle-float1 {
                    animation: float1 5s infinite;
                }

                @keyframes float2 {
                    0%{transform: translate(0, 0)}
                    50%{transform: translate(-5px, -5px)}
                    100%{transform: translate(0, 0)}
                }

                .triangle-float2 {
                    animation: float2 4s infinite;
                }

                @keyframes float3 {
                    0%{transform: translate(0, 0)}
                    50%{transform: translate(0, -10px)}
                    100%{transform: translate(0, 0)}
                }

                .triangle-float3 {
                    animation: float3 6s infinite;
                }
            </style></defs></svg>