<svg xmlns="http://www.w3.org/2000/svg" version="1.1" xmlns:xlink="http://www.w3.org/1999/xlink" xmlns:svgjs="http://svgjs.dev/svgjs" width="1440" height="560" preserveAspectRatio="none" viewBox="0 0 1440 560"><g mask="url(&quot;#SvgjsMask1133&quot;)" fill="none"><rect width="1440" height="560" x="0" y="0" fill="rgba(114, 47, 249, 1)"></rect><path d="M235.7391748977364 536.7146488232355L167.7760665457492 449.55474798466673 130.0250090732525 538.4906660435965z" fill="rgba(103, 43, 224, 0.47)" class="triangle-float2"></path><path d="M1100.901,464.915C1147.487,468.36,1201.034,463.538,1224.874,423.367C1249.007,382.703,1229.216,332.2,1203.029,292.827C1179.998,258.2,1142.476,237.97,1100.901,236.972C1057.315,235.926,1011.31,249.724,989.915,287.713C968.813,325.18,982.252,370.672,1005.077,407.115C1026.299,440.998,1061.03,461.967,1100.901,464.915" fill="rgba(103, 43, 224, 0.47)" class="triangle-float3"></path><path d="M1324.6531044984697 142.23844070231291L1372.7797504833516 10.011567584763611 1240.5528773658023-38.11507840011819 1192.4262313809204 94.1117947174311z" fill="rgba(103, 43, 224, 0.47)" class="triangle-float1"></path><path d="M393.876,328.47C440.408,326.065,475.229,292.233,500.136,252.855C527.514,209.571,555.515,157.32,530.34,112.718C504.929,67.698,445.567,65.283,393.876,64.597C340.424,63.888,279.64,63.879,250.991,109.011C220.988,156.277,236.17,218.005,266.716,264.921C294.427,307.482,343.157,331.092,393.876,328.47" fill="rgba(103, 43, 224, 0.47)" class="triangle-float3"></path><path d="M619.628896612224 233.55376860406435L560.6791503041867 155.32481303014652 482.4501947302689 214.27455933818382 541.3999410383062 292.50351491210165z" fill="rgba(103, 43, 224, 0.47)" class="triangle-float3"></path><path d="M126.151,672.255C169.194,671.503,207.106,645.752,228.242,608.247C248.981,571.446,249.452,526.89,228.856,490.008C207.723,452.165,169.385,422.34,126.151,425.43C86.403,428.271,66.107,468.625,46.073,503.072C25.868,537.814,0.494,575.6,17.688,611.926C36.658,652.004,81.817,673.03,126.151,672.255" fill="rgba(103, 43, 224, 0.47)" class="triangle-float1"></path><path d="M59.775,236.005C82.289,235.159,99.056,218.023,110.606,198.679C122.545,178.684,131.531,154.78,120.529,134.255C109.062,112.864,83.995,102.279,59.775,103.854C37.93,105.274,22.377,122.463,11.317,141.355C0.103,160.511,-8.245,183.005,1.87,202.763C12.741,223.996,35.938,236.9,59.775,236.005" fill="rgba(103, 43, 224, 0.47)" class="triangle-float3"></path></g><defs><mask id="SvgjsMask1133"><rect width="1440" height="560" fill="#ffffff"></rect></mask><style>
                @keyframes float1 {
                    0%{transform: translate(0, 0)}
                    50%{transform: translate(-10px, 0)}
                    100%{transform: translate(0, 0)}
                }

                .triangle-float1 {
                    animation: float1 5s infinite;
                }

                @keyframes float2 {
                    0%{transform: translate(0, 0)}
                    50%{transform: translate(-5px, -5px)}
                    100%{transform: translate(0, 0)}
                }

                .triangle-float2 {
                    animation: float2 4s infinite;
                }

                @keyframes float3 {
                    0%{transform: translate(0, 0)}
                    50%{transform: translate(0, -10px)}
                    100%{transform: translate(0, 0)}
                }

                .triangle-float3 {
                    animation: float3 6s infinite;
                }
            </style></defs></svg>